<?xml version="1.0" standalone="no"?>
<!DOCTYPE svg PUBLIC "-//W3C//DTD SVG 20010904//EN"
 "http://www.w3.org/TR/2001/REC-SVG-20010904/DTD/svg10.dtd">
<svg version="1.0" xmlns="http://www.w3.org/2000/svg"
 width="1280.000000pt" height="1280.000000pt" viewBox="0 0 1280.000000 1280.000000"
 preserveAspectRatio="xMidYMid meet">
<metadata>
Created by potrace 1.16, written by Peter Selinger 2001-2019
</metadata>
<g transform="translate(0.000000,1280.000000) scale(0.100000,-0.100000)"
fill="#000000" stroke="none">
<path d="M7920 10399 c-122 -24 -23 70 -2002 -1908 -1781 -1779 -1848 -1849
-1880 -1916 -31 -65 -33 -77 -33 -176 0 -101 1 -108 37 -180 36 -72 98 -135
1880 -1915 2006 -2004 1874 -1880 2017 -1906 172 -32 364 67 437 226 52 114
53 227 3 348 -20 47 -197 228 -1708 1741 l-1686 1687 1682 1683 c1352 1352
1686 1692 1707 1733 152 307 -115 650 -454 583z"/>
</g>
</svg>
