<svg width="24" height="24" xmlns="http://www.w3.org/2000/svg">
 <title/>

 <desc/>
 <g>
  <title>background</title>
  <rect fill="none" id="canvas_background" height="26" width="26" y="-1" x="-1"/>
 </g>
 <g>
  <title>Layer 1</title>
  <path stroke="null" id="grid" fill="#2f2f2f" d="m1.66261,0.520078c-0.815974,0 -1.478352,0.639126 -1.478352,1.427333l0,7.132386c0,0.788207 0.662379,1.427333 1.478352,1.427333l7.384378,0c0.815235,0 1.476876,-0.639126 1.476876,-1.427333l0,-7.132386c0,-0.788207 -0.66164,-1.427333 -1.476876,-1.427333l-7.384378,0zm0,12.840291c-0.815974,0 -1.478352,0.637699 -1.478352,1.425906l0,7.133812c0,0.786781 0.662379,1.425906 1.478352,1.425906l7.384378,0c0.815235,0 1.476876,-0.639126 1.476876,-1.425906l0,-7.133812c0,-0.788207 -0.66164,-1.425906 -1.476876,-1.425906l-7.384378,0zm13.29188,-12.840291c-0.815235,0 -1.476876,0.639126 -1.476876,1.427333l0,7.132386c0,0.788207 0.66164,1.427333 1.476876,1.427333l7.384378,0c0.815974,0 1.476876,-0.639126 1.476876,-1.427333l0,-7.132386c0,-0.788207 -0.660902,-1.427333 -1.476876,-1.427333l-7.384378,0zm0,12.840291c-0.815235,0 -1.476876,0.637699 -1.476876,1.425906l0,7.133812c0,0.786781 0.66164,1.425906 1.476876,1.425906l7.384378,0c0.815974,0 1.476876,-0.639126 1.476876,-1.425906l0,-7.133812c0,-0.788207 -0.660902,-1.425906 -1.476876,-1.425906l-7.384378,0z"/>
 </g>
</svg>