<svg width="24" height="24" xmlns="http://www.w3.org/2000/svg">

 <g>
  <title>background</title>
  <rect fill="none" id="canvas_background" height="402" width="582" y="-1" x="-1"/>
 </g>
 <g>
  <title>Layer 1</title>
  <g stroke="null" id="svg_3">
   <path fill="#2f2f2f" stroke="null" id="svg_1" d="m21.545699,1.261089l-19.091397,0c-1.312534,0 -2.386425,1.073891 -2.386425,2.386425l0,4.772849c0,1.312534 1.073891,2.386425 2.386425,2.386425l19.091397,0c1.312534,0 2.386425,-1.073891 2.386425,-2.386425l0,-4.772849c0,-1.312534 -1.073891,-2.386425 -2.386425,-2.386425z"/>
   <path fill="#2f2f2f" stroke="null" id="svg_2" d="m21.545699,13.193213l-19.091397,0c-1.312534,0 -2.386425,1.073891 -2.386425,2.386425l0,4.772849c0,1.312534 1.073891,2.386425 2.386425,2.386425l19.091397,0c1.312534,0 2.386425,-1.073891 2.386425,-2.386425l0,-4.772849c0,-1.312534 -1.073891,-2.386425 -2.386425,-2.386425z"/>
  </g>
 </g>
</svg>